<svg xmlns="http://www.w3.org/2000/svg" version="1.1" width="600px" height="600px" xlink="http://www.w3.org/1999/xlink" style="overflow:hidden!important;"><g id="svga-group-wrapper" transform="scale(3 3)"><g id="svga-group-backs-single"><path id="SvgjsPath3975" d="M225 225H-25V-25h250V225z" fill="#ecf0f1" stroke-width="none" opacity="1"></path></g><g id="svga-group-subwrapper" ><g id="svga-group-hair-back" ><path id="SvgjsPath3351" d="M100.5,100.5h-1v-1h1V100.5z" fill="#73625b" stroke-width="none" opacity="1"></path></g><g id="svga-group-humanbody-single"><path id="SvgjsPath2893" d="M195.417 199.778c-2.196-4.746-8.195-11.779-14.86-13.722 -8.239-2.403-26.837-5.308-33.733-6.923 -5.528-1.296-16.662-11.294-20.564-14.65 -0.7-0.6-1.273-1.839-1.287-2.76 -0.139-10.864 4.195-39.724 4.195-39.724H100 70.833c0 0 4.334 28.859 4.193 39.724 -0.011 0.921-0.587 2.16-1.285 2.76 -3.902 3.356-15.036 13.354-20.564 14.65 -6.897 1.615-25.495 4.619-33.733 7.022 -6.667 1.942-12.664 8.876-14.86 13.622 -3.708 8.008-4.584 22.5-4.584 35h100 100C200 222.278 199.123 207.786 195.417 199.778z" fill="#f3d4cf" stroke-width="none" opacity="1" stroke="none"></path><path id="SvgjsPath2894" d="M159.156 184.058c24.342 3.542 34.586 8.708 37.794 50.721H200c0-12.5-0.877-26.992-4.583-35 -2.196-4.746-8.195-11.779-14.86-13.722 -8.239-2.403-26.837-5.308-33.733-6.923 -5.528-1.296-18.242-12.069-21.643-16.35 3.36 4.704 12.791 15.605 21.054 18.46C150.188 182.61 153.48 183.232 159.156 184.058zM53.766 181.244c8.263-2.854 17.693-13.756 21.054-18.46 -3.4 4.28-16.114 15.054-21.643 16.35 -6.896 1.615-25.494 4.619-33.733 7.022 -6.665 1.942-12.664 8.876-14.86 13.622 -3.706 8.008-4.583 22.5-4.583 35h3.05c3.188-41.744 13.475-47.183 37.794-50.721C46.52 183.232 49.813 182.61 53.766 181.244z" fill="#fff4f3" stroke-width="none" opacity="1" stroke="none"></path><path id="SvgjsPath2895" d="M95.646 197.62c0 0-5.074-1.609-7.083-2.379 -10.449-4.009-44.395-6.607-44.395-6.607s35.754 1.419 43.644 2.779c-0.458-4.767-3.017-20.004-3.017-20.004s5.149 16.815 6.409 21.057C91.878 194.734 95.646 197.62 95.646 197.62zM106.445 196.278c-0.089 0.073-0.191 0.168-0.302 0.268C106.256 196.461 106.358 196.372 106.445 196.278zM95.646 197.62c0 0 2.893 2.992 4.347 3.03 1.91 0.051 4.828-2.899 6.151-4.104 -1.265 0.957-4.159 1.391-5.31 1.436C99.504 198.033 95.646 197.62 95.646 197.62zM116.664 190.101c-1.545 0.248-4.386 0.789-4.386 0.789l2.287-14.89c-0.646 3.071-4.474 16.211-8.12 20.278 1.91-1.616 6.158-2.391 8.324-2.704 10.236-1.484 10.232-1.483 41.062-4.94C155.831 188.634 126.76 188.479 116.664 190.101z" fill="#e4b3ab" stroke-width="none" opacity="1" stroke="none"></path><path id="SvgjsPath2896" d="M195.417 199.778c-2.196-4.746-8.195-11.779-14.86-13.722 -8.239-2.403-26.837-5.308-33.733-6.923 -5.528-1.296-16.662-11.294-20.564-14.65 -0.7-0.6-1.273-1.839-1.287-2.76 -0.139-10.864 4.195-39.724 4.195-39.724H100 70.833c0 0 4.334 28.859 4.193 39.724 -0.011 0.921-0.587 2.16-1.285 2.76 -3.902 3.356-15.036 13.354-20.564 14.65 -6.897 1.615-25.495 4.619-33.733 7.022 -6.667 1.942-12.664 8.876-14.86 13.622 -3.708 8.008-4.584 22.5-4.584 35h100 100C200 222.278 199.123 207.786 195.417 199.778z" fill="none" stroke="#c5796d" stroke-width="1.5" opacity="1"></path></g><g id="svga-group-chinshadow-single"><path id="SvgjsPath3903" d="M100.021 171.866c8.183 0 16.871-4.943 24.199-10.675 -0.001-6.702 1.451-19.105 2.652-28.205 -15.382-2.247-38.406-2.279-53.766-0.152 1.184 8.96 2.625 21.206 2.671 28.02C83.119 166.767 91.822 171.866 100.021 171.866z" fill="url(#SvgjsLinearGradient3904)" opacity="1"></path></g><g id="svga-group-clothes-single" ><path id="SvgjsPath3478" d="M-3.682 236.192c-2.914-24.293 8.022-47.09 34.496-54.611 7.77-2.208 5.691-3.341 6.867-3.41 -0.039-0.211-0.045-0.2-0.045-0.63h-0.036c0.087-8.03 9.028-6.453 11.587-6.984 10.121-2.158 13.558-12.786 25.115-9.985 0.284 2.437 0.075 5.248-1.371 15.663 10.899 23.466 22.722 21.437 26.925 34.571 3.815-11.746 17.339-13.617 27.306-34.576 -0.655-5.884-2.083-11.033-1.482-15.935l0.057-0.042c7.744-2.583 11.127 0.874 14.21 3.854 9.397 9.083 14.382 3.325 19.085 7.457 1.871 1.659 2.547 3.997 2.547 6.518 21.412 3.11 45.974 9.898 41.089 57.481l0.096 0.104C181.094 235.667 57.546 241.095-3.682 236.192z" fill="#39557e" stroke-width="none" opacity="1" stroke="none"></path><path id="SvgjsPath3479" d="M100.268 209.685c4.229-10.638 16.946-13.132 26.543-32.755 0.098-0.108 0.347-0.591 0.656-1.237 -0.164-1.826-0.372-3.747-1.213-5.757 -0.522-3.35-0.939-6.489-0.587-9.535 1.974 0.578 3.842 1.262 5.12 2.66 1.882 2.052 0.455 5.609-1.346 9.042C126.063 186.844 117.594 197.493 100.268 209.685zM169.282 198.859c2.938 10.376 4.895 26.928 2.544 37.445 1.962-0.045 2.686-0.097 4.506-0.138C177.146 225.12 175.154 207.48 169.282 198.859zM137.604 200.735c-12.805 7.48-25.687 10.358-37.321 20.291 -11.64-9.904-24.647-11.637-37.453-19.108 -5.87-2.36-14.874-10.699-20.377-16.572 17.313 26.284 29.706 18.823 57.434 36.538 27.736-17.715 40.205-11.692 57.516-37.974C151.9 189.782 143.476 198.39 137.604 200.735zM99.81 210.936c-4.238-10.644-16.459-14.383-26.056-34.006 -0.093-0.108-0.343-0.591-0.652-1.237 0.156-1.826-0.262-3.841 0.586-5.857 0.521-3.358 0.748-6.092 0.393-9.132 -1.969 0.574-3.025 0.959-4.303 2.357 -1.88 2.052-0.453 5.609 1.347 9.042C74.502 186.844 82.479 198.74 99.81 210.936zM27.163 197.688c-4.305 9.396-4.34 27.432-3.528 38.479 1.821 0.041 2.548 0.093 4.506 0.138C25.791 225.787 26.379 208.26 27.163 197.688zM99.888 212.964c16.389-4.909 33.813-13.894 48.305-35.847 -13.084 17.643-32.525 28.063-47.926 34.455 -15.89-5.762-34.915-17.221-46.006-32.635C67.257 200.226 83.508 208.055 99.888 212.964z" fill="#27446f" stroke-width="none" opacity="1" stroke="none"></path><path id="SvgjsPath3480" d="M202.762 235.667c-0.115 0-0.256 0.001-0.374 0.001 -0.427-48.615-27.497-50.574-42.48-53.725 -2.345 0-3.563-6.505-5.288-8.24 -1.467-1.475-12.769-1.475-16.348-11.169 0.583 0.513 1.131 1.052 1.674 1.573 9.397 9.083 14.382 3.325 19.085 7.457 1.871 1.659 2.547 3.997 2.547 6.518 21.412 3.11 45.974 9.898 41.089 57.481L202.762 235.667zM-3.968 236.84c0.114 0 0.255 0.001 0.376 0.001 4.759-38.632 16.029-50.811 43.543-55.364 3.451-1.313 1.634-3.81 3.362-5.544 1.467-1.468 9.627-1.5 20.924-13.389 -0.582 0.513-3.075 1.042-3.615 1.563 -9.398 9.083-16.485 6.51-19.088 7.457 -3.209 1.188-3.707 4.028-3.707 6.546 -21.414 3.111-44.161 14.974-41.702 58.626L-3.968 236.84z" fill="#4e688d" stroke-width="none" opacity="1" stroke="none"></path><path id="SvgjsPath3481" d="M161.69 177.978c0-9.858-9.265-7.895-13.529-8.812 -9.409-2.02-9.113-12.916-22.582-8.985 -0.574 4.657 0.516 8.738 1.473 15.997 -9.877 20.755-23.576 23.093-27.196 34.245 -3.957-12.38-16.045-11.134-26.81-34.171 1.498-10.838 1.648-13.354 1.36-15.774 -10.271-2.349-12.588 4.32-21.876 8.776 -5.637 2.642-7.229 0.263-12.067 2.633 -2.007 0.968-3.018 3.609-2.946 5.767 -0.013 0.01 0 0.01 0 0.01 0 0.139 0 0.267 0.023 0.396 -1.175 0.082 0.546 0.074-7.323 1.346 -25.363 4.1-36.61 25.534-34.005 56.906 11.89 0 1.011 4.382 183.147-0.077 8.456-0.214 22.799-0.447 23.402-0.447C208.321 189.265 184.836 181.568 161.69 177.978zM-3.624 236.057c2.579-36.004 8.018-50.026 41.046-57.329 17.978 29.839 39.98 25.499 62.232 42.189 -20.166-16.771-41.302-14.549-61.622-42.583 -0.228-2.354 1-4.943 3.535-5.959 1.796-0.702 3.72-0.498 5.6-0.488 7.087 0.054 12.546-5.502 17.793-9.578 2.499-1.67 6.22-1.752 9.2-1.292 0.231 3.874-1.262 9.721-1.762 13.845 -1.042-2.295-2.029-4.664-3.015-7.022 12.47 36.624 24.903 28.334 30.461 43.525 -1.177-0.327-21.014-7.468-36.822-23.188 -3.358-3.325-10.011-10.656-10.516-11.34 19.573 26.51 32.079 27.86 47.391 34.691 0 0.01 0.021 0.035 0.021 0.048 0.012 0.036 0.068 0.221 0.086 0.256 0.074-0.033 0.158-0.07 0.239-0.091 0.026-0.022 0.047-0.033 0.08-0.033 2.122-1.043 16.065-5.902 26.681-13.2 10.927-7.517 23.39-23.821 22.451-22.64 -18.253 18.573-21.075 22.785-49.212 35.67 -0.027 0-0.048-0.01-0.069-0.021 -0.022-0.131-0.064-0.257-0.107-0.387 0.011-0.062 0.032-0.121 0.054-0.178 4.948-13.579 19.476-8.33 31.51-45.554 -1.232 3.216-2.527 6.382-3.979 9.486 -0.457-5.455-2.042-9.756-1.865-14.247 2.084-0.693 7.742-1.022 9.308 0.542 6.529 5.586 7.059 9.677 17.696 9.677 3.411 0.02 7.871 0.45 8.375 6.708 -0.627 0.922-5.291 6.431-9.703 10.809 -15.438 15.368-29.249 15.664-50.619 32.007 0.521 0 1.605-1.131 2.029-1.418 16.712-11.864 28.719-11.677 44.085-24.249 7.082-5.785 13.897-15.044 14.63-16.222 0.022 0.013 0.059 0.013 0.079 0.013 28.198 4.853 42.321 15.462 40.764 57.069C76.043 234.783 58.884 238.145-3.624 236.057z" fill="#0c2850" stroke-width="none" opacity="1" stroke="none"></path></g><g id="svga-group-head" ><g id="svga-group-ears-left" ><path id="SvgjsPath2906" d="M45.671 84.344c-1.485-2.462-6.327-9.199-10.031-8.254 -3.012 0.772-2.973 4.971-3.206 7.455 -0.34 3.644-0.464 9.992 0.525 12.568 0.951 2.473 3.96 7.252 5.828 9.075 2.299 2.235 5.97 9.358 6.422 10.097 0.711 1.168 2.137 2.84 4.325 2.708 3.071-0.185 5.724-3.087 5.965-4.485C56.8 105.918 49.536 90.75 45.671 84.344z" fill="#f3d4cf" stroke="#c5796d" stroke-width="1.5" opacity="1"></path><path id="SvgjsPath2907" d="M44.2 99.341c-0.143-0.563 0.007-1.513 0.154-2.429 0.133-0.835 0.258-1.624 0.182-2.182 -0.289-2.09-1.915-6.06-2.976-8.212 -1.223-2.476-3.199-5.595-5.679-6.399 -1.024-0.333-1.699 0.065-2.089 0.468 -0.288 0.296-0.353 0.645-0.259 0.687 0.095 0.041 0.307-0.248 0.617-0.519 0.254-0.222-0.508-0.04 0 0 -0.205 1.04-0.865 6.302-0.41 10.143 0.358 3.022 1.05 5.279 1.263 5.617 0.031 0.356 0.083 0.705 0.16 1.043 1.002 4.41 7.518 10.177 9.034 11.82 0.28 0.303 0.574 0.483 0.646 0.409s-0.101-0.373-0.379-0.678c-1.498-1.632-7.971-7.381-8.939-11.635 -1.027-4.514 3.912-11.207 4.699-12.623 0.401 0.665 0.742 1.303 1.004 1.835 0.207 0.417 0.434 0.906 0.67 1.435 -0.463 0.738-5.118 6.127-3.934 10.441 0.438 1.591 3.822 3.642 5.131 4.203 0.72 0.31 0.99 0.772 1.304 1.306 0.364 0.624 0.033 2.229 1.23 2.739 0.244 0.104 0.464 0.146 0.659 0.146 0.338 0 0.594-0.13 0.783-0.284 0.02 0.271 0.019 0.619 0.009 0.941 -0.012 0.418 0.047 0.609 0.148 0.617 0.103 0.009 0.21-0.174 0.223-0.587 0.017-0.51 0.014-1.141-0.077-1.444 -0.269-0.889-1.088-1.894-1.957-2.957C44.563 102.197 44.422 100.213 44.2 99.341zM34.969 95.432c-2.348-6.923 1.283-13.229 1.81-14.179 1.012 0.399 2.562 2.193 3.221 3.235C39.52 85.321 35.067 90.775 34.969 95.432zM45.772 106.464c-1.084-0.462-0.706-1.984-1.056-2.584 -0.318-0.542-0.646-1.102-1.479-1.46 -0.18-0.078-0.379-0.196-0.583-0.332 -2.682-6.075 0.293-8.73 1.039-9.273 0.229 0.742 0.399 1.423 0.476 1.97 0.068 0.5-0.059 1.298-0.181 2.068 -0.153 0.955-0.31 1.944-0.147 2.584 0.244 0.953 0.411 2.97 1.291 4.048 0.781 0.956 1.583 1.942 1.857 2.746C46.871 106.391 46.5 106.775 45.772 106.464z" fill="#c5796d" stroke-width="none" opacity="1" stroke="none"></path></g><g id="svga-group-ears-right" ><path id="SvgjsPath2908" d="M154.066 84.344c1.486-2.462 6.328-9.199 10.031-8.254 3.012 0.772 2.973 4.971 3.207 7.455 0.34 3.644 0.463 9.992-0.525 12.568 -0.951 2.473-3.961 7.252-5.828 9.075 -2.299 2.235-5.971 9.358-6.422 10.097 -0.711 1.168-2.137 2.84-4.326 2.708 -3.07-0.185-5.723-3.087-5.965-4.485C142.938 105.918 150.203 90.75 154.066 84.344z" fill="#f3d4cf" stroke="#c5796d" stroke-width="1.5" opacity="1"></path><path id="SvgjsPath2909" d="M154.322 103.243c-0.869 1.063-1.688 2.068-1.957 2.957 -0.092 0.304-0.094 0.935-0.078 1.444 0.014 0.413 0.121 0.596 0.225 0.587 0.102-0.008 0.16-0.199 0.148-0.617 -0.01-0.322-0.012-0.67 0.008-0.941 0.189 0.154 0.445 0.284 0.783 0.284 0.195 0 0.416-0.042 0.66-0.146 1.195-0.511 0.865-2.116 1.229-2.739 0.314-0.534 0.584-0.997 1.305-1.306 1.309-0.561 4.693-2.611 5.131-4.203 1.184-4.314-3.471-9.704-3.934-10.441 0.234-0.529 0.463-1.018 0.668-1.435 0.264-0.532 0.604-1.171 1.006-1.835 0.787 1.416 5.725 8.108 4.699 12.623 -0.969 4.254-7.441 10.003-8.939 11.635 -0.279 0.305-0.453 0.604-0.381 0.678 0.074 0.074 0.367-0.106 0.646-0.409 1.516-1.643 8.031-7.41 9.033-11.82 0.078-0.338 0.131-0.687 0.162-1.043 0.211-0.337 0.904-2.594 1.262-5.617 0.455-3.841-0.205-9.103-0.41-10.143 0.508-0.04-0.254-0.222 0 0 0.311 0.271 0.523 0.56 0.617 0.519 0.094-0.042 0.029-0.39-0.258-0.687 -0.391-0.403-1.066-0.801-2.09-0.468 -2.48 0.804-4.457 3.923-5.68 6.399 -1.061 2.152-2.686 6.122-2.975 8.212 -0.076 0.558 0.049 1.347 0.182 2.182 0.146 0.916 0.297 1.866 0.154 2.429C155.316 100.213 155.176 102.197 154.322 103.243zM159.738 84.488c0.66-1.042 2.209-2.835 3.221-3.235 0.527 0.95 4.158 7.256 1.811 14.179C164.672 90.775 160.219 85.321 159.738 84.488zM152.75 106.229c0.273-0.804 1.076-1.79 1.857-2.746 0.879-1.078 1.047-3.095 1.291-4.048 0.162-0.64 0.006-1.629-0.146-2.584 -0.123-0.77-0.25-1.568-0.182-2.068 0.076-0.547 0.246-1.228 0.475-1.97 0.746 0.543 3.721 3.199 1.039 9.273 -0.203 0.136-0.402 0.254-0.584 0.332 -0.832 0.358-1.16 0.918-1.479 1.46 -0.35 0.6 0.029 2.123-1.055 2.584C153.238 106.775 152.867 106.391 152.75 106.229z" fill="#c5796d" stroke-width="none" opacity="1" stroke="none"></path></g><g id="svga-group-faceshape-wrap" ><g id="svga-group-faceshape-single" ><path id="SvgjsPath3900" d="M158.785 78.006l-0.005 0c-0.01 0.046-12.197 40.27-15.879 52.418 -0.715 2.358-1.931 4.551-3.556 6.386 -6.375 7.194-23.768 25.057-39.324 25.057 -15.849 0-33.591-19.045-39.708-26.214 -1.442-1.688-2.507-3.633-3.172-5.765 -3.607-11.551-16.126-51.648-16.137-51.694h-0.001c-1.298-4.992-1.994-10.231-2.002-15.634C38.949 28.536 66.155 0.92 99.773 0.867c33.621-0.053 60.913 27.476 60.964 61.499C160.746 67.769 160.068 73.01 158.785 78.006z" fill="#f3d4cf" stroke-width="none" opacity="1"></path><path id="SvgjsPath3901" d="M132.168 10.26c14.31 11.135 23.671 29.457 23.699 50.208 0.009 5.404-0.615 10.645-1.796 15.641l-0.004 0c-0.009 0.046-11.223 40.27-14.608 52.417 -0.658 2.358-1.776 4.551-3.271 6.385 -5.865 7.195-21.866 25.059-36.178 25.059 -14.582 0-30.904-19.047-36.531-26.215 -1.327-1.689-2.306-3.633-2.918-5.764 -3.318-11.552-14.836-51.649-14.846-51.695h-0.001c-1.194-4.992-1.834-10.231-1.842-15.634 -0.029-20.827 9.348-39.239 23.713-50.412C50.392 21.159 38.967 40.508 39.001 62.56c0.008 5.403 0.704 10.643 2.002 15.634h0.001c0.01 0.046 12.53 40.143 16.137 51.694 0.666 2.132 1.73 4.076 3.172 5.765 6.116 7.169 23.858 26.214 39.708 26.214 15.557 0 32.949-17.862 39.324-25.057 1.625-1.835 2.841-4.027 3.556-6.386 3.682-12.148 15.869-52.372 15.879-52.418l0.005 0c1.283-4.997 1.961-10.237 1.952-15.641C160.704 40.389 149.297 21.135 132.168 10.26z" fill="#ebc3bd" stroke-width="none" opacity="1"></path><path id="SvgjsPath3902" d="M158.785 78.006l-0.005 0c-0.01 0.046-12.197 40.27-15.879 52.418 -0.715 2.358-1.931 4.551-3.556 6.386 -6.375 7.194-23.768 25.057-39.324 25.057 -15.849 0-33.591-19.045-39.708-26.214 -1.442-1.688-2.507-3.633-3.172-5.765 -3.607-11.551-16.126-51.648-16.137-51.694h-0.001c-1.298-4.992-1.994-10.231-2.002-15.634C38.949 28.536 66.155 0.92 99.773 0.867c33.621-0.053 60.913 27.476 60.964 61.499C160.746 67.769 160.068 73.01 158.785 78.006z" fill="none" stroke="#c5796d" stroke-width="1.5" opacity="1"></path></g></g><g id="svga-group-mouth-single" ><path id="SvgjsPath3849" d="M100.34 141.925c-1.526 0-2.998-0.193-3.9-0.547 -0.257-0.102-0.384-0.392-0.283-0.648 0.101-0.257 0.39-0.383 0.648-0.283 1.664 0.653 5.855 0.676 7.704-0.193 0.251-0.117 0.548-0.01 0.665 0.239 0.118 0.25 0.011 0.548-0.239 0.665C103.815 141.684 102.044 141.925 100.34 141.925zM115.025 133.444c0.398-0.171 0.584-0.632 0.413-1.031s-0.635-0.583-1.031-0.413c-11.666 4.992-28.742 0.338-28.912 0.292 -0.417-0.116-0.852 0.127-0.968 0.546 -0.116 0.418 0.128 0.851 0.546 0.968 0.463 0.128 7.692 2.1 16.034 2.1C105.727 135.905 110.685 135.301 115.025 133.444z" fill="#c5796d" stroke-width="none" opacity="1"></path></g><g id="svga-group-eyes-left" ><g id="svga-group-eyesback-left"><path id="SvgjsPath3907" d="M59.722 85.795c2.578 4.596 2.19 5.704 10.268 4.467 9.691 0 17.711-1.976 17.711-5.558 0-3.582-4.925-7.115-17.196-4.923C64.489 80.855 59.722 84 59.722 85.795z" fill="url(#SvgjsRadialGradient3908)" opacity="1"></path></g><g id="svga-group-eyesiriswrapper-left" transform="translate(0.25 0.25)"><g id="svga-group-eyesiriscontrol-left" ><g id="svga-group-eyesiris-left" ><path id="SvgjsPath3416" d="M80 84c0 3.313-2.687 6-6 6 -3.313 0-6-2.687-6-6l0 0c0-3.314 2.687-6 6-6C77.313 77.999 80 80.686 80 84L80 84z" fill="#7b5c33" stroke-width="none" opacity="1" stroke="none"></path><path id="SvgjsPath3417" d="M73.328 78.066c-0.023 0.003-0.047 0.006-0.071 0.009 0.029 0.135 0.057 0.271 0.085 0.406C73.336 78.344 73.333 78.204 73.328 78.066zM73.341 78.48c0.07 1.972 0.185 3.729 0.517 4.364C74.033 82.148 73.735 80.414 73.341 78.48zM73.859 82.845c-0.043 0.167-0.108 0.281-0.208 0.319 -0.1 0.038-0.226-0.006-0.368-0.103 0.041 0.167 0.037 0.297-0.036 0.378 -0.072 0.081-0.201 0.101-0.373 0.078 0.113 0.13 0.171 0.249 0.146 0.353 -0.027 0.104-0.134 0.182-0.293 0.242 0.159 0.063 0.266 0.141 0.291 0.245 0.025 0.104-0.033 0.223-0.145 0.352 0.17-0.021 0.301 0.001 0.371 0.082 0.071 0.081 0.075 0.212 0.035 0.379 0.141-0.097 0.265-0.139 0.365-0.1 0.101 0.038 0.166 0.152 0.206 0.32 0.081-0.152 0.171-0.249 0.28-0.26 0.104-0.014 0.216 0.059 0.329 0.188 0.001-0.172 0.037-0.299 0.127-0.36 0.088-0.061 0.219-0.049 0.379 0.013 -0.078-0.152-0.105-0.281-0.055-0.377 0.05-0.095 0.173-0.146 0.344-0.166 -0.141-0.099-0.227-0.2-0.225-0.308 0-0.108 0.084-0.209 0.227-0.306 -0.17-0.021-0.291-0.072-0.342-0.167 -0.049-0.095-0.022-0.225 0.058-0.377 -0.162 0.06-0.292 0.072-0.38 0.011 -0.089-0.061-0.125-0.188-0.125-0.36 -0.112 0.128-0.224 0.199-0.33 0.185C74.029 83.092 73.938 82.998 73.859 82.845zM74.466 82.92c0.479-0.535 1.021-2.209 1.57-4.104C75.182 80.593 74.467 82.202 74.466 82.92zM76.035 78.816c0.06-0.122 0.121-0.246 0.178-0.37 -0.021-0.007-0.042-0.017-0.063-0.026C76.112 78.553 76.074 78.686 76.035 78.816zM74.972 83.27c0.672-0.252 1.931-1.483 3.297-2.905C76.688 81.541 75.306 82.634 74.972 83.27zM78.269 80.365c0.1-0.075 0.203-0.15 0.305-0.225 -0.014-0.018-0.03-0.033-0.042-0.049C78.445 80.181 78.358 80.274 78.269 80.365zM75.254 83.814c0.713 0.088 2.4-0.417 4.272-1.041C77.578 83.081 75.848 83.406 75.254 83.814zM79.526 82.774c0.11-0.016 0.225-0.034 0.337-0.052 -0.004-0.019-0.009-0.038-0.014-0.057C79.742 82.701 79.632 82.738 79.526 82.774zM75.253 84.427c0.59 0.412 2.318 0.747 4.262 1.063C77.65 84.857 75.967 84.342 75.253 84.427zM79.516 85.49c0.095 0.033 0.191 0.067 0.285 0.098 0.005-0.017 0.009-0.033 0.012-0.05C79.716 85.523 79.615 85.507 79.516 85.49zM74.965 84.97c0.333 0.637 1.708 1.738 3.282 2.924C76.888 86.464 75.638 85.226 74.965 84.97zM78.248 87.892c0.059 0.062 0.12 0.126 0.179 0.189 0.01-0.012 0.019-0.021 0.03-0.032C78.387 87.997 78.315 87.944 78.248 87.892zM74.46 85.317c-0.003 0.719 0.703 2.331 1.547 4.113C75.468 87.533 74.937 85.855 74.46 85.317zM76.007 89.431c0.021 0.075 0.043 0.152 0.063 0.229 0.015-0.006 0.025-0.01 0.039-0.014C76.076 89.574 76.041 89.5 76.007 89.431zM73.851 85.389c-0.336 0.637-0.461 2.39-0.542 4.361C73.713 87.82 74.022 86.087 73.851 85.389zM73.309 89.75c-0.017 0.075-0.031 0.151-0.047 0.228 0.014 0.003 0.025 0.003 0.039 0.005C73.303 89.906 73.307 89.826 73.309 89.75zM73.28 85.169c-0.596 0.407-1.521 1.904-2.508 3.61C72.026 87.259 73.106 85.867 73.28 85.169zM70.772 88.779c-0.053 0.063-0.108 0.13-0.162 0.193 0.013 0.008 0.024 0.014 0.038 0.024C70.688 88.924 70.731 88.851 70.772 88.779zM72.875 84.71c-0.716 0.083-2.231 0.978-3.898 2.029C70.795 85.977 72.395 85.248 72.875 84.71zM68.976 86.741c-0.086 0.036-0.174 0.072-0.263 0.11 0.006 0.013 0.015 0.027 0.023 0.04C68.817 86.842 68.897 86.791 68.976 86.741zM72.728 84.113c-0.671-0.257-2.429-0.168-4.395-0.011C70.297 84.27 72.055 84.367 72.728 84.113zM68.333 84.102c-0.107-0.01-0.217-0.02-0.323-0.029 0 0.019-0.002 0.038 0 0.056C68.119 84.119 68.228 84.11 68.333 84.102zM72.875 83.519c-0.473-0.539-2.069-1.277-3.881-2.051C70.653 82.528 72.163 83.432 72.875 83.519zM68.994 81.468c-0.104-0.067-0.209-0.134-0.315-0.201 -0.009 0.019-0.019 0.038-0.029 0.055C68.766 81.371 68.882 81.419 68.994 81.468zM73.284 83.061c-0.169-0.698-1.241-2.094-2.485-3.623C71.775 81.15 72.692 82.651 73.284 83.061zM70.799 79.438c-0.067-0.115-0.132-0.232-0.199-0.349 -0.019 0.013-0.039 0.026-0.056 0.039C70.628 79.231 70.716 79.335 70.799 79.438z" fill="url(#SvgjsRadialGradient3418)" opacity="0.7"></path><path id="SvgjsPath3421" d="M74.886 78.086c-0.024-0.003-0.047-0.007-0.07-0.01 -0.007 0.138-0.016 0.277-0.024 0.414C74.822 78.356 74.855 78.22 74.886 78.086zM74.791 78.489c-0.442 1.922-0.787 3.649-0.629 4.35C74.511 82.211 74.671 80.459 74.791 78.489zM74.161 82.839c-0.084 0.15-0.176 0.243-0.283 0.254 -0.106 0.01-0.216-0.064-0.327-0.195 -0.004 0.171-0.042 0.297-0.133 0.356 -0.09 0.059-0.221 0.045-0.38-0.021 0.076 0.155 0.101 0.285 0.049 0.378 -0.053 0.094-0.176 0.142-0.345 0.158 0.137 0.101 0.22 0.204 0.217 0.312 -0.002 0.107-0.089 0.207-0.231 0.302 0.169 0.024 0.29 0.079 0.337 0.174 0.048 0.096 0.018 0.225-0.064 0.375 0.161-0.057 0.292-0.065 0.379-0.002 0.087 0.063 0.12 0.19 0.116 0.363 0.117-0.125 0.229-0.196 0.337-0.179 0.105 0.014 0.194 0.113 0.27 0.268 0.045-0.167 0.113-0.279 0.216-0.315 0.101-0.036 0.225 0.01 0.363 0.111 -0.036-0.167-0.029-0.299 0.044-0.378 0.073-0.079 0.205-0.096 0.376-0.072 -0.111-0.132-0.168-0.251-0.138-0.355 0.028-0.104 0.136-0.18 0.299-0.237 -0.16-0.064-0.263-0.145-0.288-0.25 -0.023-0.105 0.037-0.223 0.154-0.349 -0.172 0.016-0.301-0.006-0.37-0.088 -0.07-0.082-0.072-0.214-0.028-0.379 -0.142 0.094-0.268 0.134-0.367 0.093C74.261 83.122 74.199 83.007 74.161 82.839zM74.729 83.07c0.601-0.394 1.557-1.871 2.578-3.558C76.022 81.007 74.916 82.375 74.729 83.07zM77.307 79.511c0.089-0.102 0.18-0.206 0.268-0.311 -0.019-0.013-0.036-0.028-0.055-0.042C77.449 79.277 77.378 79.396 77.307 79.511zM75.127 83.538c0.715-0.07 2.25-0.934 3.937-1.953C77.231 82.312 75.614 83.01 75.127 83.538zM79.063 81.584c0.117-0.046 0.235-0.092 0.354-0.138 -0.01-0.021-0.021-0.04-0.028-0.059C79.281 81.453 79.173 81.52 79.063 81.584zM75.259 84.137c0.666 0.27 2.426 0.218 4.395 0.101C77.693 84.03 75.938 83.896 75.259 84.137zM79.654 84.237c0.112 0.013 0.226 0.025 0.339 0.037 0-0.02 0.001-0.039 0.002-0.058C79.881 84.223 79.766 84.23 79.654 84.237zM75.1 84.729c0.462 0.551 2.046 1.321 3.842 2.129C77.303 85.763 75.811 84.831 75.1 84.729zM78.941 86.858c0.083 0.057 0.167 0.114 0.25 0.168 0.009-0.015 0.017-0.03 0.025-0.045C79.126 86.942 79.032 86.9 78.941 86.858zM74.68 85.179c0.156 0.701 1.2 2.12 2.414 3.674C76.151 87.119 75.264 85.599 74.68 85.179zM77.094 88.85c0.042 0.075 0.083 0.153 0.125 0.229 0.012-0.009 0.024-0.016 0.037-0.024C77.202 88.987 77.147 88.917 77.094 88.85zM74.103 85.383c-0.188 0.693 0.076 2.433 0.43 4.373C74.502 87.784 74.424 86.026 74.103 85.383zM74.532 89.756c0.001 0.078 0.003 0.158 0.003 0.238 0.014-0.002 0.027-0.004 0.041-0.004C74.562 89.913 74.547 89.833 74.532 89.756zM73.496 85.294c-0.49 0.528-1.064 2.189-1.652 4.072C72.733 87.607 73.481 86.013 73.496 85.294zM71.843 89.366c-0.035 0.068-0.07 0.138-0.104 0.208 0.012 0.006 0.023 0.009 0.036 0.015C71.797 89.516 71.821 89.439 71.843 89.366zM73 84.934c-0.68 0.239-1.962 1.446-3.357 2.838C71.25 86.628 72.652 85.563 73 84.934zM69.644 87.772c-0.067 0.047-0.137 0.098-0.205 0.145 0.01 0.011 0.02 0.02 0.029 0.032C69.525 87.89 69.585 87.832 69.644 87.772zM72.728 84.385c-0.713-0.104-2.407 0.368-4.291 0.952C70.392 85.071 72.125 84.781 72.728 84.385zM68.437 85.339c-0.092 0.013-0.187 0.024-0.283 0.039 0.003 0.015 0.008 0.03 0.013 0.044C68.258 85.396 68.348 85.366 68.437 85.339zM72.741 83.772c-0.582-0.423-2.303-0.792-4.242-1.149C70.353 83.294 72.025 83.843 72.741 83.772zM68.499 82.623c-0.101-0.037-0.205-0.075-0.305-0.112 -0.005 0.019-0.011 0.037-0.015 0.054C68.288 82.584 68.395 82.604 68.499 82.623zM73.038 83.235c-0.318-0.643-1.668-1.769-3.219-2.986C71.147 81.704 72.372 82.968 73.038 83.235zM69.818 80.25c-0.083-0.091-0.167-0.183-0.251-0.275 -0.014 0.016-0.029 0.031-0.042 0.046C69.624 80.097 69.723 80.173 69.818 80.25zM73.551 82.899c0.017-0.718-0.656-2.344-1.464-4.142C72.587 80.663 73.085 82.35 73.551 82.899zM72.087 78.757c-0.034-0.128-0.067-0.259-0.101-0.389 -0.021 0.007-0.043 0.015-0.063 0.023C71.977 78.513 72.033 78.636 72.087 78.757z" fill="url(#SvgjsRadialGradient3422)" opacity="0.4"></path><path id="SvgjsPath3425" d="M76.354 84c0 1.3-1.053 2.353-2.353 2.353 -1.299 0-2.354-1.053-2.354-2.353 0-1.299 1.055-2.354 2.354-2.354C75.301 81.646 76.354 82.7 76.354 84z" fill="#7b5c33" stroke-width="none" opacity="1" stroke="none"></path><path id="SvgjsPath3426" d="M76.354 84c0 1.3-1.053 2.353-2.353 2.353 -1.299 0-2.354-1.053-2.354-2.353 0-1.299 1.055-2.354 2.354-2.354C75.301 81.646 76.354 82.7 76.354 84z" fill="#000000" stroke-width="none" opacity="0.9"></path><path id="SvgjsPath3427" d="M70.717 86.748c0.449-0.302 1.059-0.18 1.36 0.268 0.301 0.449 0.182 1.059-0.268 1.36 -0.45 0.303-1.059 0.183-1.36-0.267C70.148 87.66 70.268 87.049 70.717 86.748L70.717 86.748z" fill="url(#SvgjsLinearGradient3428)" opacity="0.5"></path><path id="SvgjsPath3431" d="M75.86 83.672c-0.251 0.374-0.969 0.331-1.606-0.096 -0.638-0.427-0.95-1.078-0.7-1.451l0-0.001c0.25-0.374 0.969-0.331 1.605 0.097C75.798 82.647 76.11 83.297 75.86 83.672 75.86 83.672 75.86 83.672 75.86 83.672z" fill="url(#SvgjsLinearGradient3432)" opacity="0.5"></path><path id="SvgjsPath3435" d="M78.716 82.673c-0.568 0.873-2.036 0.925-3.275 0.117 -1.24-0.808-1.784-2.17-1.215-3.043 0.568-0.872 2.036-0.924 3.275-0.117C78.74 80.439 79.284 81.802 78.716 82.673L78.716 82.673z" fill="url(#SvgjsLinearGradient3436)" opacity="0.75"></path></g></g></g><g id="svga-group-eyesfront-left"><path id="SvgjsPath3932" d="M54.8 84.999c0 13.807 8.507 25 19 25s19-11.193 19-25 -8.507-25-19-25S54.8 71.192 54.8 84.999zM59.722 85.795c0-1.795 4.768-4.939 10.782-6.014C82.775 77.589 87.7 81.123 87.7 84.704c0 3.582-8.02 5.558-17.711 5.558C61.912 91.499 62.3 90.391 59.722 85.795z" fill="#f3d4cf" stroke-width="none" opacity="1"></path><path id="SvgjsPath3933" d="M58.697 86.046c-0.075 6.904 8.647 12.467 18.038 12.434 9.389-0.04 16.987-5.663 16.962-12.568 -0.023-6.903-7.647-12.467-17.04-12.431C67.265 73.519 58.799 76.602 58.697 86.046zM59.722 85.795c0-1.795 4.768-4.939 10.782-6.014C82.775 77.589 87.7 81.123 87.7 84.704c0 3.582-8.02 5.558-17.711 5.558C61.912 91.499 62.3 90.391 59.722 85.795z" fill="url(#SvgjsRadialGradient3934)" opacity="1"></path><path id="SvgjsPath3938" d="M59.722 85.795c2.578 4.596 2.19 5.704 10.268 4.467 9.691 0 17.711-1.976 17.711-5.558 0-3.582-4.925-7.115-17.196-4.923C64.489 80.855 59.722 84 59.722 85.795z" fill="url(#SvgjsRadialGradient3939)" opacity="1"></path><path id="SvgjsPath3942" d="M86.716 88.797c0 0-1.383 0.778-2.354 1.036 -1.209 0.318-4.997 0.895-11.562 1.795 7.49-0.531 10.48-0.82 11.762-1.189C85.578 90.147 86.716 88.797 86.716 88.797z" fill="#c5796d" stroke-width="none" opacity="1"></path><path id="SvgjsPath3943" d="M87.757 83.463c0.062 0.073 0.057 0.18-0.011 0.247 -0.068 0.066-0.175 0.069-0.247 0.007l-3.871-3.383c-11.411-1.304-19.93 0.687-23.25 5.247l0.536 2.4 -3.114-2.69c3.172-4.526 6.306-7.915 25.828-6.735C85.933 80.808 87.137 81.935 87.757 83.463zM86.632 87.442c0.082-0.079 0.102-0.205 0.048-0.306 -0.052-0.103-0.166-0.156-0.279-0.135 -3.954 2.317-11.021 2.523-22.642 3.426l-2.25-1.384 1.653 2.046C75.744 90.501 85.006 89.756 86.632 87.442z" fill="#8e7167" stroke-width="none" opacity="1"></path></g></g><g id="svga-group-eyes-right" ><g id="svga-group-eyesback-right"><path id="SvgjsPath3915" d="M139.879 85.795c-2.578 4.596-2.19 5.704-10.268 4.467 -9.691 0-17.711-1.976-17.711-5.558 0-3.582 4.925-7.115 17.196-4.923C135.111 80.855 139.879 84 139.879 85.795z" fill="url(#SvgjsRadialGradient3916)" opacity="1"></path></g><g id="svga-group-eyesiriswrapper-right" transform="translate(-0.25 0.25)"><g id="svga-group-eyesiriscontrol-right" ><g id="svga-group-eyesiris-right" ><path id="SvgjsPath3439" d="M132 84c0 3.313-2.687 6-5.999 6 -3.313 0-6.001-2.687-6.001-6l0 0c0-3.314 2.688-6 6.001-6C129.313 77.999 132 80.686 132 84L132 84z" fill="#7b5c33" stroke-width="none" opacity="1" stroke="none"></path><path id="SvgjsPath3440" d="M125.328 78.066c-0.023 0.003-0.047 0.006-0.071 0.009 0.029 0.135 0.058 0.271 0.085 0.406C125.336 78.344 125.333 78.204 125.328 78.066zM125.341 78.48c0.069 1.972 0.185 3.729 0.518 4.364C126.033 82.148 125.735 80.414 125.341 78.48zM125.858 82.845c-0.042 0.167-0.108 0.281-0.207 0.319 -0.101 0.038-0.226-0.006-0.367-0.103 0.04 0.167 0.036 0.297-0.036 0.378 -0.072 0.081-0.201 0.101-0.372 0.078 0.112 0.13 0.171 0.249 0.146 0.353 -0.028 0.104-0.134 0.182-0.293 0.242 0.158 0.063 0.265 0.141 0.29 0.245 0.025 0.104-0.032 0.223-0.145 0.352 0.17-0.021 0.3 0.001 0.37 0.082 0.071 0.081 0.075 0.212 0.035 0.379 0.141-0.097 0.266-0.139 0.365-0.1 0.102 0.038 0.166 0.152 0.206 0.32 0.08-0.152 0.172-0.249 0.279-0.26 0.105-0.014 0.217 0.059 0.329 0.188 0.002-0.172 0.037-0.299 0.128-0.36 0.087-0.061 0.219-0.049 0.379 0.013 -0.078-0.152-0.104-0.281-0.056-0.377 0.051-0.095 0.174-0.146 0.345-0.166 -0.141-0.099-0.228-0.2-0.225-0.308 -0.001-0.108 0.084-0.209 0.227-0.306 -0.171-0.021-0.291-0.072-0.342-0.167 -0.05-0.095-0.022-0.225 0.057-0.377 -0.161 0.06-0.291 0.072-0.38 0.011s-0.124-0.188-0.125-0.36c-0.111 0.128-0.224 0.199-0.33 0.185C126.029 83.092 125.938 82.998 125.858 82.845zM126.466 82.92c0.479-0.535 1.021-2.209 1.569-4.104C127.182 80.593 126.468 82.202 126.466 82.92zM128.035 78.816c0.06-0.122 0.121-0.246 0.179-0.37 -0.021-0.007-0.042-0.017-0.063-0.026C128.112 78.553 128.074 78.686 128.035 78.816zM126.972 83.27c0.673-0.252 1.932-1.483 3.298-2.905C128.688 81.541 127.307 82.634 126.972 83.27zM130.27 80.365c0.1-0.075 0.202-0.15 0.305-0.225 -0.015-0.018-0.03-0.033-0.042-0.049C130.445 80.181 130.358 80.274 130.27 80.365zM127.255 83.814c0.713 0.088 2.399-0.417 4.271-1.041C129.578 83.081 127.848 83.406 127.255 83.814zM131.526 82.774c0.11-0.016 0.225-0.034 0.337-0.052 -0.005-0.019-0.009-0.038-0.014-0.057C131.742 82.701 131.632 82.738 131.526 82.774zM127.253 84.427c0.591 0.412 2.318 0.747 4.263 1.063C129.65 84.857 127.967 84.342 127.253 84.427zM131.516 85.49c0.095 0.033 0.19 0.067 0.285 0.098 0.005-0.017 0.009-0.033 0.013-0.05C131.716 85.523 131.614 85.507 131.516 85.49zM126.965 84.97c0.332 0.637 1.708 1.738 3.282 2.924C128.889 86.464 127.638 85.226 126.965 84.97zM130.248 87.892c0.059 0.062 0.119 0.126 0.178 0.189 0.01-0.012 0.02-0.021 0.031-0.032C130.387 87.997 130.315 87.944 130.248 87.892zM126.461 85.317c-0.003 0.719 0.702 2.331 1.547 4.113C127.468 87.533 126.937 85.855 126.461 85.317zM128.008 89.431c0.021 0.075 0.043 0.152 0.063 0.229 0.015-0.006 0.026-0.01 0.039-0.014C128.076 89.574 128.041 89.5 128.008 89.431zM125.851 85.389c-0.336 0.637-0.461 2.39-0.542 4.361C125.713 87.82 126.022 86.087 125.851 85.389zM125.309 89.75c-0.017 0.075-0.031 0.151-0.047 0.228 0.014 0.003 0.024 0.003 0.039 0.005C125.303 89.906 125.307 89.826 125.309 89.75zM125.279 85.169c-0.596 0.407-1.521 1.904-2.508 3.61C124.026 87.259 125.105 85.867 125.279 85.169zM122.771 88.779c-0.052 0.063-0.107 0.13-0.161 0.193 0.013 0.008 0.024 0.014 0.037 0.024C122.688 88.924 122.731 88.851 122.771 88.779zM124.874 84.71c-0.716 0.083-2.23 0.978-3.897 2.029C122.795 85.977 124.395 85.248 124.874 84.71zM120.977 86.741c-0.087 0.036-0.175 0.072-0.263 0.11 0.006 0.013 0.014 0.027 0.023 0.04C120.817 86.842 120.897 86.791 120.977 86.741zM124.729 84.113c-0.672-0.257-2.43-0.168-4.396-0.011C122.298 84.27 124.055 84.367 124.729 84.113zM120.333 84.102c-0.106-0.01-0.217-0.02-0.322-0.029 -0.001 0.019-0.003 0.038-0.001 0.056C120.119 84.119 120.228 84.11 120.333 84.102zM124.876 83.519c-0.474-0.539-2.069-1.277-3.882-2.051C122.653 82.528 124.163 83.432 124.876 83.519zM120.994 81.468c-0.104-0.067-0.21-0.134-0.315-0.201 -0.009 0.019-0.019 0.038-0.028 0.055C120.766 81.371 120.883 81.419 120.994 81.468zM125.284 83.061c-0.169-0.698-1.241-2.094-2.485-3.623C123.775 81.15 124.692 82.651 125.284 83.061zM122.799 79.438c-0.067-0.115-0.133-0.232-0.198-0.349 -0.019 0.013-0.039 0.026-0.057 0.039C122.629 79.231 122.716 79.335 122.799 79.438z" fill="url(#SvgjsRadialGradient3441)" opacity="0.7"></path><path id="SvgjsPath3444" d="M126.886 78.086c-0.024-0.003-0.047-0.007-0.07-0.01 -0.008 0.138-0.016 0.277-0.024 0.414C126.821 78.356 126.854 78.22 126.886 78.086zM126.791 78.489c-0.443 1.922-0.787 3.649-0.63 4.35C126.511 82.211 126.671 80.459 126.791 78.489zM126.161 82.839c-0.084 0.15-0.177 0.243-0.283 0.254 -0.106 0.01-0.216-0.064-0.327-0.195 -0.004 0.171-0.042 0.297-0.133 0.356 -0.09 0.059-0.221 0.045-0.38-0.021 0.075 0.155 0.101 0.285 0.049 0.378 -0.054 0.094-0.176 0.142-0.346 0.158 0.138 0.101 0.22 0.204 0.217 0.312 -0.002 0.107-0.089 0.207-0.23 0.302 0.17 0.024 0.289 0.079 0.337 0.174 0.048 0.096 0.018 0.225-0.064 0.375 0.162-0.057 0.293-0.065 0.38-0.002 0.087 0.063 0.12 0.19 0.115 0.363 0.117-0.125 0.229-0.196 0.337-0.179 0.105 0.014 0.194 0.113 0.27 0.268 0.046-0.167 0.113-0.279 0.216-0.315 0.101-0.036 0.226 0.01 0.363 0.111 -0.035-0.167-0.028-0.299 0.045-0.378 0.072-0.079 0.204-0.096 0.375-0.072 -0.11-0.132-0.168-0.251-0.138-0.355 0.027-0.104 0.136-0.18 0.299-0.237 -0.159-0.064-0.263-0.145-0.288-0.25 -0.022-0.105 0.038-0.223 0.154-0.349 -0.172 0.016-0.302-0.006-0.37-0.088 -0.07-0.082-0.072-0.214-0.027-0.379 -0.143 0.094-0.269 0.134-0.368 0.093C126.262 83.122 126.198 83.007 126.161 82.839zM126.729 83.07c0.601-0.394 1.557-1.871 2.578-3.558C128.022 81.007 126.916 82.375 126.729 83.07zM129.307 79.511c0.089-0.102 0.18-0.206 0.269-0.311 -0.02-0.013-0.037-0.028-0.056-0.042C129.449 79.277 129.378 79.396 129.307 79.511zM127.127 83.538c0.715-0.07 2.249-0.934 3.937-1.953C129.231 82.312 127.614 83.01 127.127 83.538zM131.063 81.584c0.116-0.046 0.234-0.092 0.354-0.138 -0.01-0.021-0.021-0.04-0.028-0.059C131.281 81.453 131.173 81.52 131.063 81.584zM127.259 84.137c0.666 0.27 2.426 0.218 4.396 0.101C129.692 84.03 127.938 83.896 127.259 84.137zM131.654 84.237c0.111 0.013 0.226 0.025 0.339 0.037 0.001-0.02 0.001-0.039 0.002-0.058C131.882 84.223 131.766 84.23 131.654 84.237zM127.1 84.729c0.463 0.551 2.046 1.321 3.842 2.129C129.303 85.763 127.811 84.831 127.1 84.729zM130.941 86.858c0.082 0.057 0.167 0.114 0.25 0.168 0.009-0.015 0.018-0.03 0.024-0.045C131.126 86.942 131.032 86.9 130.941 86.858zM126.681 85.179c0.155 0.701 1.199 2.12 2.413 3.674C128.151 87.119 127.265 85.599 126.681 85.179zM129.095 88.85c0.041 0.075 0.082 0.153 0.124 0.229 0.012-0.009 0.023-0.016 0.037-0.024C129.202 88.987 129.146 88.917 129.095 88.85zM126.103 85.383c-0.188 0.693 0.076 2.433 0.43 4.373C126.502 87.784 126.424 86.026 126.103 85.383zM126.532 89.756c0.001 0.078 0.003 0.158 0.003 0.238 0.015-0.002 0.026-0.004 0.04-0.004C126.562 89.913 126.547 89.833 126.532 89.756zM125.495 85.294c-0.489 0.528-1.064 2.189-1.652 4.072C124.733 87.607 125.48 86.013 125.495 85.294zM123.843 89.366c-0.035 0.068-0.069 0.138-0.104 0.208 0.012 0.006 0.022 0.009 0.035 0.015C123.797 89.516 123.821 89.439 123.843 89.366zM125 84.934c-0.68 0.239-1.961 1.446-3.356 2.838C123.25 86.628 124.652 85.563 125 84.934zM121.644 87.772c-0.067 0.047-0.138 0.098-0.205 0.145 0.01 0.011 0.02 0.02 0.029 0.032C121.525 87.89 121.586 87.832 121.644 87.772zM124.728 84.385c-0.713-0.104-2.406 0.368-4.29 0.952C122.392 85.071 124.126 84.781 124.728 84.385zM120.438 85.339c-0.093 0.013-0.188 0.024-0.283 0.039 0.004 0.015 0.008 0.03 0.013 0.044C120.258 85.396 120.348 85.366 120.438 85.339zM124.741 83.772c-0.582-0.423-2.303-0.792-4.242-1.149C122.353 83.294 124.025 83.843 124.741 83.772zM120.499 82.623c-0.101-0.037-0.205-0.075-0.305-0.112 -0.006 0.019-0.011 0.037-0.015 0.054C120.287 82.584 120.395 82.604 120.499 82.623zM125.038 83.235c-0.318-0.643-1.669-1.769-3.22-2.986C123.147 81.704 124.372 82.968 125.038 83.235zM121.818 80.25c-0.083-0.091-0.167-0.183-0.251-0.275 -0.015 0.016-0.028 0.031-0.043 0.046C121.623 80.097 121.724 80.173 121.818 80.25zM125.551 82.899c0.017-0.718-0.656-2.344-1.464-4.142C124.588 80.663 125.085 82.35 125.551 82.899zM124.087 78.757c-0.034-0.128-0.067-0.259-0.102-0.389 -0.021 0.007-0.043 0.015-0.063 0.023C123.977 78.513 124.033 78.636 124.087 78.757z" fill="url(#SvgjsRadialGradient3445)" opacity="0.4"></path><path id="SvgjsPath3448" d="M128.354 84c0 1.3-1.054 2.353-2.353 2.353 -1.3 0-2.354-1.053-2.354-2.353 0-1.299 1.055-2.354 2.354-2.354C127.302 81.646 128.354 82.7 128.354 84z" fill="#7b5c33" stroke-width="none" opacity="1" stroke="none"></path><path id="SvgjsPath3449" d="M128.354 84c0 1.3-1.054 2.353-2.353 2.353 -1.3 0-2.354-1.053-2.354-2.353 0-1.299 1.055-2.354 2.354-2.354C127.302 81.646 128.354 82.7 128.354 84z" fill="#000000" stroke-width="none" opacity="0.9"></path><path id="SvgjsPath3450" d="M122.718 86.748c0.448-0.302 1.059-0.18 1.359 0.268 0.302 0.449 0.183 1.059-0.268 1.36 -0.45 0.303-1.059 0.183-1.359-0.267C122.148 87.66 122.268 87.049 122.718 86.748L122.718 86.748z" fill="url(#SvgjsLinearGradient3451)" opacity="0.5"></path><path id="SvgjsPath3454" d="M127.859 83.672c-0.251 0.374-0.969 0.331-1.605-0.096 -0.638-0.427-0.95-1.078-0.7-1.451l0.001-0.001c0.25-0.374 0.969-0.331 1.605 0.097C127.798 82.647 128.11 83.297 127.859 83.672 127.859 83.672 127.859 83.672 127.859 83.672z" fill="url(#SvgjsLinearGradient3455)" opacity="0.5"></path><path id="SvgjsPath3458" d="M130.717 82.673c-0.569 0.873-2.036 0.925-3.276 0.117 -1.239-0.808-1.784-2.17-1.215-3.043 0.568-0.872 2.035-0.924 3.275-0.117C130.74 80.439 131.284 81.802 130.717 82.673L130.717 82.673z" fill="url(#SvgjsLinearGradient3459)" opacity="0.75"></path></g></g></g><g id="svga-group-eyesfront-right"><path id="SvgjsPath3953" d="M125.801 59.999c-10.493 0-19 11.193-19 25s8.507 25 19 25 19-11.193 19-25S136.294 59.999 125.801 59.999zM129.611 90.262c-9.691 0-17.711-1.976-17.711-5.558 0-3.582 4.925-7.115 17.196-4.923 6.015 1.074 10.782 4.218 10.782 6.014C137.301 90.391 137.688 91.499 129.611 90.262z" fill="#f3d4cf" stroke-width="none" opacity="1"></path><path id="SvgjsPath3954" d="M122.943 73.48c-9.393-0.036-17.017 5.528-17.04 12.431 -0.025 6.906 7.573 12.529 16.962 12.568 9.391 0.034 18.113-5.529 18.038-12.434C140.802 76.602 132.336 73.519 122.943 73.48zM129.611 90.262c-9.691 0-17.711-1.976-17.711-5.558 0-3.582 4.925-7.115 17.196-4.923 6.015 1.074 10.782 4.218 10.782 6.014C137.301 90.391 137.688 91.499 129.611 90.262z" fill="url(#SvgjsRadialGradient3955)" opacity="1"></path><path id="SvgjsPath3959" d="M139.879 85.795c-2.578 4.596-2.19 5.704-10.268 4.467 -9.691 0-17.711-1.976-17.711-5.558 0-3.582 4.925-7.115 17.196-4.923C135.111 80.855 139.879 84 139.879 85.795z" fill="url(#SvgjsRadialGradient3960)" opacity="1"></path><path id="SvgjsPath3963" d="M112.885 88.797c0 0 1.383 0.778 2.354 1.036 1.209 0.318 4.997 0.895 11.562 1.795 -7.49-0.531-10.48-0.82-11.762-1.189C114.022 90.147 112.885 88.797 112.885 88.797z" fill="#c5796d" stroke-width="none" opacity="1"></path><path id="SvgjsPath3964" d="M115.973 78.555c19.522-1.179 22.656 2.209 25.828 6.735l-3.114 2.69 0.536-2.4c-3.32-4.56-11.839-6.551-23.25-5.247l-3.871 3.383c-0.072 0.063-0.179 0.06-0.247-0.007 -0.067-0.066-0.072-0.174-0.011-0.247C112.464 81.935 113.668 80.808 115.973 78.555zM136.438 91.09l1.653-2.046 -2.25 1.384c-11.621-0.903-18.688-1.109-22.642-3.426 -0.113-0.021-0.228 0.032-0.279 0.135 -0.054 0.102-0.034 0.227 0.048 0.306C114.595 89.756 123.856 90.501 136.438 91.09z" fill="#8e7167" stroke-width="none" opacity="1"></path></g></g><g id="svga-group-facehighlight-single" ><path id="SvgjsPath2885" d="M141 113.974c0.035 22.622-18.292 40.994-40.938 41.025 -22.642 0.037-41.028-18.273-41.063-40.9 -0.035-22.62 18.292-41.064 40.937-41.1C122.579 72.964 140.967 91.349 141 113.974z" fill="url(#SvgjsRadialGradient2886)" opacity="1"></path><path id="SvgjsPath2889" d="M137.5 53.999c0 20.711-16.789 37.5-37.499 37.5 -20.711 0-37.501-16.789-37.501-37.5s16.79-37.5 37.501-37.5C120.711 16.499 137.5 33.288 137.5 53.999z" fill="url(#SvgjsRadialGradient2890)" opacity="1"></path></g><g id="svga-group-eyebrows-left" ><path id="SvgjsPath3973" d="M54.205 76c21.295-17.8 43.536-4.503 36.719-1.268C88.252 76 78.133 64.999 54.205 76z" fill="#73625b" stroke-width="none" opacity="1"></path></g><g id="svga-group-eyebrows-right" ><path id="SvgjsPath3974" d="M145.795 76c-21.295-17.8-43.536-4.503-36.719-1.268C111.748 76 121.867 64.999 145.795 76z" fill="#73625b" stroke-width="none" opacity="1"></path></g><g id="svga-group-nose-single" transform="translate(0 -4.0000003)"><path id="SvgjsPath3884" d="M105.07 117.886c1.053 0 1.338 0.28 1.338 0.625 0 0.347-0.328 0.879-1.338 0.624 -1.109-0.276-3.046-0.148-3.046-0.148S104.018 117.886 105.07 117.886zM95.017 117.886c-1.054 0.001-1.337 0.282-1.337 0.628 -0.001 0.345 0.317 0.842 1.337 0.624 1.125-0.241 3.046-0.149 3.046-0.149S96.071 117.89 95.017 117.886zM108.609 114.148c0 0 1.458 1.654 1.154 3.403 -0.294 1.699-3.238 2.447-3.238 2.447s2.044-1.297 2.292-2.873C108.933 116.39 108.609 114.148 108.609 114.148zM90.617 112.446c0 0-1.063 2.316-0.755 3.727 0.558 2.547 3.625 3.565 3.625 3.565s-1.914-1.747-2.594-3.291C90.149 114.763 90.617 112.446 90.617 112.446z" fill="#c5796d" stroke-width="none" opacity="1"></path><path id="SvgjsPath3885" d="M105.019 115.38c1.021-0.761 1.124-1.195 0.912-1.479 -0.21-0.284-0.823-0.464-1.678 0.453 -0.942 1.012-2.991 1.758-2.991 1.758S103.997 116.143 105.019 115.38z" fill="#fff4f3" stroke-width="none" opacity="1"></path></g><g id="svga-group-beardwrap" ><g id="svga-group-beard-single" ><path id="SvgjsPath3304" d="M100.58 180.78c-4.91-0.01-6.91-2.7-9.68-6.42 -1.61-2.17-3.44-4.63-6.24-7.19 -0.62-0.58-2.7-2.54-3.23-3.59 -6.28-0.92-7.41-2.74-9.9-6.71 -1.05-1.68-2.35-3.76-4.38-6.31 -2.62-3.2-4.81-5.69-6.75-7.89C51.02 132 49.06 129.78 43.66 96.53c-0.52-3.09-1.1-7.04-1.23-8.14 0.13-0.05 0.26-0.11 0.38-0.18 1.29 0.18 3.04 0.39 5.92 0.59 0.84 5.28 2.39 8.4 3.89 11.42 1.03 2.07 2.1 4.21 2.89 7 2.21 7.51 6.37 11.3 10.39 14.97 4.5 4.1 9.14 8.34 10.96 17.81l0.01 0.06 0.06 0.02c3.98 1.11 5.6 3.71 7.8 7.88l0.08 0.16 0.09-0.15c0.51-0.86 0.81-1.48 1.04-1.97 0.79-1.68 0.89-1.89 7-5.27 1.62-0.91 2.43-1.52 3.26-2.23l0.35 0.15c0.74 0.28 1.63 0.43 2.6 0.43 1.11 0 2.22-0.21 2.92-0.54 0.94 1.32 1.99 1.72 3.31 2.24 1.86 0.72 4.17 1.62 7.43 5.51l0.05 0.06 0.07-0.04c2.71-1.44 4.42-3.58 6.23-5.84 1.88-2.35 3.83-4.78 7.13-6.87 2.4-5.56 5.62-8.89 8.73-12.12 3.87-4.01 7.87-8.16 10.04-16.49 0.54-2.04 3.24-8.84 4.85-12.9 0.6-1.52 1.05-2.65 1.19-3.03 2.54-0.01 4.77-0.4 6.83-0.81 -1.15 4.21-1.19 8.14-1.24 12.31 -0.06 5.81-0.13 11.81-3.2 19.28 -7.67 19.92-11.78 23.46-16.13 27.22 -2.36 2.04-4.8 4.14-7.85 9.09 -2.63 4.66-4.68 5.67-9.52 6.33l-0.06 0.01 -0.02 0.06c-1.23 4.21-5.54 7.24-10.1 10.45 -2.95 2.07-6 4.22-8.28 6.77 -0.05 0.05-0.14 0.16-0.25 0.28C101.08 180.29 100.74 180.68 100.58 180.78z" fill="#73625b" stroke-width="none" opacity="1"></path><path id="SvgjsPath3305" d="M140.72 136.54c-6 10-13.72 11.46-17.72 22.46 0-4-1-6-2-10 -6.63 24.87-13 17-19 26 1-3-1-6-1-9 0 3-2 6-2 9 0-5-3-8-5-12 1 5 3 8 3 13 -6.79-11.51-13.63-13.22-19-23 0 2 0 5 0 7 -14.01-27.71-24.45-22.31-35.16-68.01 0.22 1.45 0.48 3.1 0.72 4.56 6.52 40.1 8.18 35.27 23.53 54.07 6.79 8.53 5.35 11.75 14.26 13 0.5 1.01 2.42 2.86 3.25 3.62 7.75 7.1 8.23 13.64 16.01 13.64 0.24-0.12 0.83-0.86 1.02-1.05 5.75-6.43 16.35-10.23 18.4-17.25 4.76-0.66 6.91-1.64 9.59-6.38 8.48-13.78 12.02-5.26 23.98-36.32 3.45-8.39 3.12-16.28 3.23-23.56C153.13 113.88 147.41 124.98 140.72 136.54z" fill="#644e45" stroke-width="none" opacity="1"></path><path id="SvgjsPath3306" d="M151.04 88.97c-0.34 1-5.3 13.14-6.06 16 -3.9 14.93-13.38 16.08-18.73 28.55 -6.57 4.15-7.92 9.81-13.36 12.7 -5.62-6.73-8.55-4.59-10.78-7.81 -1.18 0.61-3.74 0.83-5.5 0.14H96.6c-0.14-0.06-0.27-0.11-0.41-0.17 -0.79 0.69-1.6 1.3-3.29 2.26 -7.9 4.37-5.79 3.45-8.08 7.28 -2.05-3.88-3.71-6.77-7.86-7.93 -3.43-17.94-16.67-16.88-21.35-32.79 -1.93-6.85-5.38-9.5-6.79-18.49 0 0-0.25-0.14-0.24 0.9 0.7 6.03 5.15 20.02 9.57 26.51 6.02 8.93 14.69 10.58 18.27 24.27 6.22 1.96 7.03 6.94 8.09 8.65 -0.71 2.95-0.14 7.2 2.58 9.92 0 0-0.49-0.67-0.6-0.9 -1.12-1.83-1.57-4.15-1.47-6.27 0.38-7.05 4.17-7.78 8.27-10.49 0.49-0.32 2.82-2 3.04-2.47 1.69 0.9 3.98 0.76 5.7 0.14 0.02 0.02 0.04 0.05 0.05 0.08 2.84 3.35 5.17 1.8 10.08 7.59 2.21 2.31 1.4 4.1 1.4 8.75 0.56-2.52 1.29-6.51-0.08-8.39 5.1-2.37 9.09-10.91 13.56-13.37 5.79-11.59 15.38-13.26 19.21-28.33 1.85-7.04 3.47-8.37 5.27-16.02C151.57 88.85 151.04 88.97 151.04 88.97zM157.71 88.27c-3.27 7.61-1.03 17.75-6.32 30.79 -12.34 32.03-16.09 21.52-23.57 37.21 -1.46 3.42-3.99 4.78-7.55 5.55 0.83-3.41 0.65-3.05 0.7-5.88 -1.51 13.1-10.32 13.24-18.38 21.27 -1.08 1.19-2.37 2.87-2.37 2.87 -5.74 0-9.13-8.55-13.13-12.02 -3.77-3.27-6.42-4.43-7.13-9.37 0 1-0.04 2.38 1 4.29 -7.32-1.44-6.42-5.56-12.28-13.71 -8.01-10.92-15.07-14.81-18.32-29.52 -1.04-4.71-7.52-30.22-7.58-31.63 -0.01 0-0.01 0.01-0.02 0.01 -0.14 0.08-0.29 0.14-0.44 0.2 0.11 1 0.71 5.07 1.24 8.22 6.52 40.1 8.18 35.27 23.53 54.07 6.79 8.53 5.35 11.75 14.26 13 0.5 1.01 2.42 2.86 3.25 3.62 7.75 7.1 8.23 13.64 16.01 13.64 0.24-0.12 0.83-0.86 1.02-1.05 5.75-6.43 16.35-10.23 18.4-17.25 4.76-0.66 6.91-1.64 9.59-6.38 8.48-13.78 12.02-5.26 23.98-36.32 5.31-12.91 1.65-21.63 4.48-31.75L157.71 88.27z" fill="#452c22" stroke-width="none" opacity="1"></path></g></g><g id="svga-group-mustache-single" ><path id="SvgjsPath3359" d="M121.84 132.49c-14.48-1.75-10.87-2.33-17.37-2.59 -1.03-0.04-1.87-0.74-2.1-1.71 -0.19-0.83-0.61-3.02-0.31-5.48 2.65 0.32 14.42 2.84 17.17 4.68C121.48 128.93 121.54 130.75 121.84 132.49zM80.77 127.39c2.82-1.89 15.09-4.46 17.04-4.66v-0.01c0.05-0.01 0.09-0.01 0.12-0.01 0.3 2.46-0.11 4.65-0.31 5.48 -0.56 2.38-3.11 1.45-5.68 2.01 -12.16 2.53-9.03 1.72-13.79 2.29C78.46 130.75 78.52 128.93 80.77 127.39z" fill="#73625b" stroke-width="none" opacity="1" stroke="none"></path><path id="SvgjsPath3360" d="M98.02 122.6c0.27 2.09 0.04 4.17-0.3 5.61 -0.24 1.01-1.12 1.74-2.15 1.78 -1.26 0.05-2.71 0.11-3.6 0.3 -12.24 2.55-8.97 1.7-13.93 2.31 0.01-0.03 0.01-0.07 0.02-0.1 0.48-0.46 0.94-0.7 0.94-0.7 6.58-4.7 17.57-0.57 18.87-9.19C97.93 122.61 97.99 122.6 98.02 122.6zM101.98 122.6c-0.27 2.09-0.04 4.17 0.3 5.61 0.24 1.01 1.12 1.74 2.15 1.78 1.26 0.05 2.71 0.11 3.6 0.3 12.24 2.55 8.97 1.7 13.93 2.31 -0.01-0.03-0.01-0.07-0.02-0.1 -0.48-0.46-0.94-0.7-0.94-0.7 -6.58-4.7-17.57-0.57-18.87-9.19C102.07 122.61 102.01 122.6 101.98 122.6zM83.87 127.6c-1.04 0.04-1.31 0.18-1.96 0.62 -0.05 0.05-1.01 0.92-0.94 0.92 -0.31 0.35-0.93 1.24-1.23 1.64C81.37 129.42 81.74 128.11 83.87 127.6zM87.49 127.91c4.34-1.52 6.03-3.11 9.13-4.25C93.8 125.4 91.42 127.39 87.49 127.91zM84.24 128.54c2.22-1.49 4.02-2.27 5.75-3C88.99 126.17 87.09 127.43 84.24 128.54zM92.24 127.41c1-0.82 2.19-0.93 3.25-1.75C94.4 126.78 93.54 126.72 92.24 127.41zM116.13 127.6c1.04 0.04 1.31 0.18 1.96 0.62 0.05 0.05 1.01 0.92 0.94 0.92 0.31 0.35 0.93 1.24 1.23 1.64C118.63 129.42 118.26 128.11 116.13 127.6zM103.38 123.66c3.09 1.14 4.78 2.73 9.13 4.25C108.58 127.39 106.2 125.4 103.38 123.66zM110.01 125.54c1.73 0.73 3.53 1.51 5.75 3C112.91 127.43 111.01 126.17 110.01 125.54zM104.51 125.66c1.06 0.82 2.25 0.93 3.25 1.75C106.46 126.72 105.6 126.78 104.51 125.66z" fill="#644e45" stroke-width="none" opacity="1" stroke="none"></path><path id="SvgjsPath3361" d="M119.29 127.31c-2.94-1.97-15.41-4.51-17-4.66v-0.01c-0.08-0.01-0.25-0.03-0.31-0.03 -0.27 2.09-0.04 4.17 0.3 5.61 0.24 1.01 1.12 1.74 2.15 1.78 1.26 0.05 2.71 0.11 3.6 0.3 12.24 2.55 8.97 1.7 13.93 2.31C121.63 130.81 121.64 128.91 119.29 127.31zM108.17 129.65c-0.91-0.16-2.12-0.13-3.4-0.08 -0.75 0.03-1.42-0.47-1.61-1.19 -0.25-0.92-0.54-2.22-0.83-5.42 2.1 0.42 5.78 1.78 8.1 2.39 8.29 2.01 9.41 2.32 10.99 6.83C121.38 132.16 108.21 129.65 108.17 129.65zM78.04 132.6c4.96-0.6 1.69 0.24 13.93-2.31 0.89-0.19 2.34-0.25 3.6-0.3 1.04-0.04 1.92-0.77 2.15-1.78 0.33-1.44 0.57-3.52 0.3-5.61 -0.06 0-0.23 0.03-0.31 0.03v0.01c-1.59 0.16-14.06 2.7-17 4.66C78.36 128.91 78.37 130.81 78.04 132.6zM78.58 132.18c1.58-4.51 2.7-4.82 10.99-6.83 2.32-0.61 6-1.97 8.1-2.39 -0.29 3.2-0.58 4.5-0.83 5.42 -0.2 0.72-0.86 1.21-1.61 1.19 -1.28-0.04-2.49-0.07-3.4 0.08C91.79 129.65 78.62 132.16 78.58 132.18z" fill="#452c22" stroke-width="none" opacity="1" stroke="none"></path></g><g id="svga-group-hair-front" ><path id="SvgjsPath3353" d="M45.777 90.313c-2.998-2.502-6.749-8.939-8.423-17.962 -0.356-1.849-0.61-3.75-0.88-5.763 -1.131-8.446-3.555-18.289-1.878-28.373 2.013-12.337 11.271-25.693 23.036-33.237 18.191-11.772 64.171-17.033 73.754-1.537 5.559-0.203 11.557 1.249 15.699 4.471 13.709 10.284 19.01 45.211 15.211 62.559 -2.528 11.847-3.191 14.954-8.264 19.599 1.812-54.323-0.99-39.665-3.306-54.253 -2.715-1.99-3.727-1.168-7.909-3.542 -8.318-6.142-7.915-8.602-11.683-12.898 -3.356 3.969-8.181 7.463-11.907 9.077 0.944-1.547 1.749-3.282 2.282-4.398l-0.446-0.373c-3.129 2.262-9.451 5.478-13.336 5.823 2.087-2.565 1.843-2.242 2.677-3.805 -3.116 1.916-6.427 3.217-10.604 3.583 3.935-1.944 5.699-3.274 8.751-5.817l-0.279-0.518c-21.191 6.437-26.218 7.895-41.755 10.651 -13.012 1.627-8.248 0.252-12.968 0.252 -7.593 0-8.798 22.789-8.47 30.387C45.925 85.479 44.837 81.343 45.777 90.313z" fill="#73625b" stroke-width="none" opacity="1"></path><path id="SvgjsPath3354" d="M162.296 70.471c-2.528 11.847-3.191 14.954-8.264 19.599 1.812-54.323-0.99-39.665-3.306-54.253 -2.715-1.99-3.727-1.168-7.909-3.542 -8.318-6.142-7.915-8.602-11.683-12.898 -3.356 3.969-8.181 7.463-11.907 9.077 0.944-1.547 1.749-3.282 2.282-4.398l-0.446-0.373c-3.129 2.262-9.451 5.478-13.336 5.823 2.087-2.565 1.843-2.242 2.677-3.805 -3.116 1.916-6.427 3.217-10.604 3.583 3.935-1.944 5.699-3.274 8.751-5.817l-0.279-0.518c-21.191 6.437-26.218 7.895-41.755 10.651 -13.012 1.627-8.248 0.252-12.968 0.252 -7.593 0-8.798 22.789-8.47 30.387 0.846 21.241-0.242 17.104 0.698 26.075 -2.998-2.502-6.749-8.939-8.423-17.962 -0.356-1.849-0.61-3.75-0.88-5.763 -1.131-8.446-3.555-18.289-1.878-28.373 1.59-9.746 13.727-24.08 22.024-31.729 -25.5 23.75-18 50.252-13.75 71.5C41.619 59.235 38 29 55 28c23 0 48.869-3.265 64.869-19.265C118.869 15.735 118 17 113 22c4-3 9-5 11-10 -1 4-1 7-4 10 3-2 6-5 9-8 0 3-2 6-3 9 2-5 8-8 9-13 -3 13 12.369 19.985 17.119 22.735 6.5 9 6.75 28 5.25 43.75 5.5-18 3-48.75-13.25-70C161.869 19.485 165.6 55.386 162.296 70.471zM60.369 19.985c12.207-0.359 21.165-2.337 34.25-9.75C82.032 15.751 74.067 18.383 60.369 19.985zM93.619 15.735c6.46-2.681 10.955-8.497 18.25-10.25C105.146 7.818 100.471 13.67 93.619 15.735zM54.869 19.485c4.629-8.324 14.52-15.222 27-16.25C71.713 5.123 60.837 10.953 54.869 19.485z" fill="#644e45" stroke-width="none" opacity="1"></path><path id="SvgjsPath3355" d="M86.619 0c13.085-5.594 24.996-5.023 37.5 1.985 -13.123-5.605-23.154-4.532-23.154-4.532C98.577-2.36 94.759-2.452 86.619 0zM138.119 7.985c4.139 1.594 5.866 4.016 8.383 7.511 3.685 5.954 4.716 8.533 6.863 14.489C151.28 21.431 146.603 10.292 138.119 7.985zM114.619 7.735c-7.115 6.003-12.274 9.237-26.5 14C99.361 19.065 106.526 15.916 114.619 7.735zM137.619 13.985c2.067 7.036 5.876 10.957 11.75 14.5C143.909 24.378 140.339 20.566 137.619 13.985zM58.619 10.235c0 0-0.486 0.36-1.287 0.952 -9.145 6.479-16.294 18.86-16.463 34.548C42.864 30.127 49.049 19.143 58.619 10.235zM63.369 14.735c7.757-4.055 11.339-4.087 24.25-6.25C76.476 9.262 70.964 9.793 63.369 14.735zM84.417 18.964c-4.565 2.29-15.277 4.855-15.277 4.74 -3.757 0.834-10.27 2.281-10.27 2.281 2.522-0.319 6.849-0.825 10.418-1.591 0 0.135 8.796-1.985 11.379-3.319 2.836-1.338 1.875-0.813 4.703-2.59C85.369 18.485 85.008 18.667 84.417 18.964z" fill="#827874" stroke-width="none" opacity="1"></path><path id="SvgjsPath3356" d="M147.27 7.675c-4.229-3.289-10.323-4.741-15.721-4.54 -4.611-7.454-19.151-9.598-27.97-9.69 -13.304-0.138-34.324 3.653-46.11 11.28 -10.968 7.032-21.023 20.286-23.17 33.44 -1.284 7.721-0.178 15.721 1.13 23.38 0.64 3.7 0.97 7.43 1.63 10.86 1.897 10.227 6.295 16.626 9.09 18.57 -1.065-9.855 0.097-4.998-0.77-26.75 -0.403-9.331 1.305-30.714 8.49-30.06 4.883 0.345 1.014 1.191 12.7-0.271 15.347-2.722 20.366-4.152 41.79-10.659 -3.357 2.798-5.103 4.068-9.6 6.22 -0.01-0.01-0.01 0-0.01 0 -0.14 0.07-0.29 0.14-0.43 0.2 3.719-0.024 8.346-1.305 11.299-3.12 -0.407 0.762-1.632 2.147-2.539 3.3 3.844 0 10.74-3.438 14.16-5.91 -0.48 1-1.603 3.462-2.811 5.21 1.141-0.57 3.874-1.313 9.33-5.93 1.11-0.93 2.38-2.19 3.38-3.37 3.349 3.818 3.148 6.516 11.53 12.7 4.158 2.36 5.282 1.625 7.78 3.45 2.206 14.448 5.134-0.795 3.26 54.78 5.6-4.96 6.275-8.026 8.88-20.23C166.297 53.602 161.249 18.163 147.27 7.675zM160.949 70.325c-2.216 12.286-2.402 14.36-6.88 19.22 0.814-10.8 1.53-20.459 1.319-31.34 -0.444-16.061-2.58-13.048-4.1-22.72 -2.878-2.021-4.273-1.655-6.92-2.85 -0.46-0.17-0.84-0.46-1.27-0.68 -8.392-5.824-8.398-8.604-11.83-12.27 0.971-1.114 1.813-2.391 2.09-2.94 -1.509 2.264-7.977 8.239-14.11 11.63 1.059-1.676 1.864-3.305 2.44-4.78 1.735-1.212 2.92-2.358 3.92-3.35 -3.419 2.84-12.225 7.96-17.75 9.07 0.174-0.179 1.875-1.826 2.516-3.074 1.355-0.542 5.016-2.779 6.304-4.203 -6.304 4.203-13.475 6.72-15.979 7.136 3.064-1.149 7.04-4.731 9.08-6.36 1.971-1.574 2.353-2.206 4.399-4.28 -1.344 0.938-3.44 2.993-6.056 4.097 -1.547 0.653-43.89 12.498-51.254 10.574 -1.478-0.37-3.149-0.818-4.62-0.39 -11.8 5.076-7.461 37.634-7.3 47.63 0.136 8.423 0.74 9.89 0.74 9.89 -7.751-7.36-8.089-23.554-8.9-29.18 -1.028-7.456-1.923-15.371-0.55-22.77 2.24-12.64 11.912-25.407 22.26-32.06 15.469-10.04 61.594-18.533 73.04-2.83C159.954 3.495 163.94 50.271 160.949 70.325z" fill="#452c22" stroke-width="none" opacity="1"></path></g><g id="svga-group-glasses-single" ><path id="SvgjsPath3012" d="M100,18.13L100,18.13L100,18.13L100,18.13z" fill="#26120b" stroke-width="none" opacity="1"></path></g></g></g><rect id="SvgjsRect1036" width="200" height="15" x="0" y="185" fill="#ecf0f1" opacity="0.5" style="display:none;"></rect><text id="SvgjsText1037" font-family="&quot;Roboto&quot;, &quot;Helvetica Neue&quot;, Helvetica, Arial, sans-serif" style="font-size:0.84em;font-family:&quot;Roboto&quot;, &quot;Helvetica Neue&quot;, Helvetica, Arial, sans-serif;text-anchor:middle;font-weight:400;display:none;" font-size="0.84em" text-anchor="middle" font-weight="400" fill="#000000" x="100" y="185"><tspan id="SvgjsTspan1038" dy="1.2em" x="100" style="font-size:0.84em;font-family:&quot;Roboto&quot;, &quot;Helvetica Neue&quot;, Helvetica, Arial, sans-serif;text-anchor:middle;font-weight:400;">Created by face.co</tspan></text></g><defs id="SvgjsDefs1001"><radialGradient id="SvgjsRadialGradient2886" cx="100" cy="114" r="41" gradientUnits="userSpaceOnUse" class="svga-on-canvas-facehighlight-gradient-single-0"><stop id="SvgjsStop2887" stop-opacity="0.5" stop-color="#fff4f3" offset="0" ></stop><stop id="SvgjsStop2888" stop-opacity="0" stop-color="#f3d4cf" offset="0.9" ></stop></radialGradient><radialGradient id="SvgjsRadialGradient2890" cx="100" cy="54" r="37" gradientUnits="userSpaceOnUse" class="svga-on-canvas-facehighlight-gradient-single-1"><stop id="SvgjsStop2891" stop-opacity="0.5" stop-color="#fff4f3" offset="0" ></stop><stop id="SvgjsStop2892" stop-opacity="0" stop-color="#f3d4cf" offset="0.9" ></stop></radialGradient><radialGradient id="SvgjsRadialGradient3418" cx="-568.659" cy="-521.042" r="59.751" gradientTransform="matrix(0.096 -0.0248 0.0245 0.0961 141.2814 119.9893)" gradientUnits="userSpaceOnUse" class="svga-on-canvas-eyesiris-gradient-left-1"><stop id="SvgjsStop3419" stop-opacity="1" stop-color="#ffffff" offset="0" ></stop><stop id="SvgjsStop3420" stop-opacity="0" stop-color="#ffffff" offset="1" ></stop></radialGradient><radialGradient id="SvgjsRadialGradient3422" cx="-582.838" cy="-519.099" r="59.745" gradientTransform="matrix(0.0991 8.856319e-004 -0.0011 0.0991 131.1134 135.9855)" gradientUnits="userSpaceOnUse" class="svga-on-canvas-eyesiris-gradient-left-2"><stop id="SvgjsStop3423" stop-opacity="1" stop-color="#ffffff" offset="0" ></stop><stop id="SvgjsStop3424" stop-opacity="0" stop-color="#ffffff" offset="1" ></stop></radialGradient><linearGradient id="SvgjsLinearGradient3428" x1="122.67" y1="88.268" x2="123.606" y2="87.152" gradientTransform="matrix(1 0 0 1 -52 0)" gradientUnits="userSpaceOnUse" class="svga-on-canvas-eyesiris-gradient-left-5"><stop id="SvgjsStop3429" stop-opacity="1" stop-color="#ffffff" offset="0" ></stop><stop id="SvgjsStop3430" stop-opacity="0" stop-color="#ffffff" offset="1" ></stop></linearGradient><linearGradient id="SvgjsLinearGradient3432" x1="127.212" y1="82.296" x2="126.463" y2="83.189" gradientTransform="matrix(1 0 0 1 -52 0)" gradientUnits="userSpaceOnUse" class="svga-on-canvas-eyesiris-gradient-left-6"><stop id="SvgjsStop3433" stop-opacity="1" stop-color="#ffffff" offset="0" ></stop><stop id="SvgjsStop3434" stop-opacity="0" stop-color="#ffffff" offset="1" ></stop></linearGradient><linearGradient id="SvgjsLinearGradient3436" x1="129.636" y1="79.822" x2="127.91" y2="81.879" gradientTransform="matrix(1 0 0 1 -52 0)" gradientUnits="userSpaceOnUse" class="svga-on-canvas-eyesiris-gradient-left-7"><stop id="SvgjsStop3437" stop-opacity="1" stop-color="#ffffff" offset="0" ></stop><stop id="SvgjsStop3438" stop-opacity="0" stop-color="#ffffff" offset="1" ></stop></linearGradient><radialGradient id="SvgjsRadialGradient3441" cx="-568.654" cy="-521.042" r="59.752" gradientTransform="matrix(0.096 -0.0248 0.0245 0.0961 193.2804 119.9894)" gradientUnits="userSpaceOnUse" class="svga-on-canvas-eyesiris-gradient-right-1"><stop id="SvgjsStop3442" stop-opacity="1" stop-color="#ffffff" offset="0" ></stop><stop id="SvgjsStop3443" stop-opacity="0" stop-color="#ffffff" offset="1" ></stop></radialGradient><radialGradient id="SvgjsRadialGradient3445" cx="-582.833" cy="-519.102" r="59.747" gradientTransform="matrix(0.0991 8.856319e-004 -0.0011 0.0991 183.1126 135.9856)" gradientUnits="userSpaceOnUse" class="svga-on-canvas-eyesiris-gradient-right-2"><stop id="SvgjsStop3446" stop-opacity="1" stop-color="#ffffff" offset="0" ></stop><stop id="SvgjsStop3447" stop-opacity="0" stop-color="#ffffff" offset="1" ></stop></radialGradient><linearGradient id="SvgjsLinearGradient3451" x1="122.67" y1="88.268" x2="123.606" y2="87.152" gradientUnits="userSpaceOnUse" class="svga-on-canvas-eyesiris-gradient-right-5"><stop id="SvgjsStop3452" stop-opacity="1" stop-color="#ffffff" offset="0" ></stop><stop id="SvgjsStop3453" stop-opacity="0" stop-color="#ffffff" offset="1" ></stop></linearGradient><linearGradient id="SvgjsLinearGradient3455" x1="127.212" y1="82.296" x2="126.463" y2="83.189" gradientUnits="userSpaceOnUse" class="svga-on-canvas-eyesiris-gradient-right-6"><stop id="SvgjsStop3456" stop-opacity="1" stop-color="#ffffff" offset="0" ></stop><stop id="SvgjsStop3457" stop-opacity="0" stop-color="#ffffff" offset="1" ></stop></linearGradient><linearGradient id="SvgjsLinearGradient3459" x1="129.636" y1="79.822" x2="127.91" y2="81.879" gradientUnits="userSpaceOnUse" class="svga-on-canvas-eyesiris-gradient-right-7"><stop id="SvgjsStop3460" stop-opacity="1" stop-color="#ffffff" offset="0" ></stop><stop id="SvgjsStop3461" stop-opacity="0" stop-color="#ffffff" offset="1" ></stop></linearGradient><linearGradient id="SvgjsLinearGradient3783" x1="100" y1="140" x2="100" y2="138" gradientUnits="userSpaceOnUse" class="svga-on-canvas-mouth-gradient-single-0"><stop id="SvgjsStop3784" stop-opacity="1" stop-color="#ebc3bd" offset="0.1" ></stop><stop id="SvgjsStop3785" stop-opacity="1" stop-color="#e4b3ab" offset="1" ></stop></linearGradient><linearGradient id="SvgjsLinearGradient3904" x1="100" y1="171" x2="100" y2="131" gradientUnits="userSpaceOnUse" class="svga-on-canvas-chinshadow-gradient-single-0"><stop id="SvgjsStop3905" stop-opacity="0.8" stop-color="#e4b3ab" offset="0" ></stop><stop id="SvgjsStop3906" stop-opacity="1" stop-color="#c5796d" offset="0.7" ></stop></linearGradient><radialGradient id="SvgjsRadialGradient3908" cx="126.289" cy="84.919" r="10.712" gradientTransform="matrix(-1 0 0 1 200 0)" gradientUnits="userSpaceOnUse" class="svga-on-canvas-eyesback-gradient-left-0"><stop id="SvgjsStop3909" stop-opacity="1" stop-color="#ffffff" offset="0" ></stop><stop id="SvgjsStop3910" stop-opacity="1" stop-color="#fdfefe" offset="0.544" ></stop><stop id="SvgjsStop3911" stop-opacity="1" stop-color="#f6f8f9" offset="0.74" ></stop><stop id="SvgjsStop3912" stop-opacity="1" stop-color="#eaeff2" offset="0.879" ></stop><stop id="SvgjsStop3913" stop-opacity="1" stop-color="#d9e3e8" offset="0.992" ></stop><stop id="SvgjsStop3914" stop-opacity="1" stop-color="#d8e2e7" offset="1" ></stop></radialGradient><radialGradient id="SvgjsRadialGradient3916" cx="125.89" cy="84.919" r="10.712" gradientUnits="userSpaceOnUse" class="svga-on-canvas-eyesback-gradient-right-0"><stop id="SvgjsStop3917" stop-opacity="1" stop-color="#ffffff" offset="0" ></stop><stop id="SvgjsStop3918" stop-opacity="1" stop-color="#fdfefe" offset="0.544" ></stop><stop id="SvgjsStop3919" stop-opacity="1" stop-color="#f6f8f9" offset="0.74" ></stop><stop id="SvgjsStop3920" stop-opacity="1" stop-color="#eaeff2" offset="0.879" ></stop><stop id="SvgjsStop3921" stop-opacity="1" stop-color="#d9e3e8" offset="0.992" ></stop><stop id="SvgjsStop3922" stop-opacity="1" stop-color="#d8e2e7" offset="1" ></stop></radialGradient><radialGradient id="SvgjsRadialGradient3924" cx="126.289" cy="84.919" r="10.712" gradientTransform="matrix(-1 0 0 1 200 0)" class="svga-on-canvas-eyesfront-gradient-left-0"><stop id="SvgjsStop3925" stop-opacity="1" stop-color="#ffffff" offset="0" ></stop><stop id="SvgjsStop3926" stop-opacity="1" stop-color="#fdfefe" offset="0.544" ></stop><stop id="SvgjsStop3927" stop-opacity="1" stop-color="#f6f8f9" offset="0.74" ></stop><stop id="SvgjsStop3928" stop-opacity="1" stop-color="#eaeff2" offset="0.879" ></stop><stop id="SvgjsStop3929" stop-opacity="1" stop-color="#d9e3e8" offset="0.992" ></stop><stop id="SvgjsStop3930" stop-opacity="1" stop-color="#d8e2e7" offset="1" ></stop></radialGradient><radialGradient id="SvgjsRadialGradient3934" cx="123.715" cy="85.489" fx="135.434" fy="85.522" r="16.667" gradientTransform="matrix(0.9998 0.0208 0.0166 -0.7998 -48.826 151.2907)" gradientUnits="userSpaceOnUse" class="svga-on-canvas-eyesfront-gradient-left-3"><stop id="SvgjsStop3935" stop-opacity="1" stop-color="#e4b3ab" offset="0" ></stop><stop id="SvgjsStop3936" stop-opacity="0.3" stop-color="#e4b3ab" offset="0.7" ></stop><stop id="SvgjsStop3937" stop-opacity="0" stop-color="#f3d4cf" offset="1" ></stop></radialGradient><radialGradient id="SvgjsRadialGradient3939" cx="122.874" cy="101.325" r="26.878" gradientTransform="matrix(-1 0 0 0.7923 200 21.0491)" gradientUnits="userSpaceOnUse" class="svga-on-canvas-eyesfront-gradient-left-4"><stop id="SvgjsStop3940" stop-opacity="0" stop-color="#000000" offset="0.95" ></stop><stop id="SvgjsStop3941" stop-opacity="0.2" stop-color="#000000" offset="1" ></stop></radialGradient><radialGradient id="SvgjsRadialGradient3945" cx="125.89" cy="84.919" r="10.712" gradientUnits="userSpaceOnUse" class="svga-on-canvas-eyesfront-gradient-right-0"><stop id="SvgjsStop3946" stop-opacity="1" stop-color="#ffffff" offset="0" ></stop><stop id="SvgjsStop3947" stop-opacity="1" stop-color="#fdfefe" offset="0.544" ></stop><stop id="SvgjsStop3948" stop-opacity="1" stop-color="#f6f8f9" offset="0.74" ></stop><stop id="SvgjsStop3949" stop-opacity="1" stop-color="#eaeff2" offset="0.879" ></stop><stop id="SvgjsStop3950" stop-opacity="1" stop-color="#d9e3e8" offset="0.992" ></stop><stop id="SvgjsStop3951" stop-opacity="1" stop-color="#d8e2e7" offset="1" ></stop></radialGradient><radialGradient id="SvgjsRadialGradient3955" cx="123.315" cy="85.489" fx="135.034" fy="85.522" r="16.667" gradientTransform="matrix(-0.9998 0.0208 -0.0166 -0.7998 248.0273 151.299)" gradientUnits="userSpaceOnUse" class="svga-on-canvas-eyesfront-gradient-right-3"><stop id="SvgjsStop3956" stop-opacity="1" stop-color="#e4b3ab" offset="0" ></stop><stop id="SvgjsStop3957" stop-opacity="0.3" stop-color="#e4b3ab" offset="0.7" ></stop><stop id="SvgjsStop3958" stop-opacity="0" stop-color="#f3d4cf" offset="1" ></stop></radialGradient><radialGradient id="SvgjsRadialGradient3960" cx="122.475" cy="101.325" r="26.878" gradientTransform="matrix(1 0 0 0.7923 0 21.0491)" gradientUnits="userSpaceOnUse" class="svga-on-canvas-eyesfront-gradient-right-4"><stop id="SvgjsStop3961" stop-opacity="0" stop-color="#000000" offset="0.95" ></stop><stop id="SvgjsStop3962" stop-opacity="0.2" stop-color="#000000" offset="1" ></stop></radialGradient></defs></svg>